<?xml version="1.0" standalone="no"?>
<!DOCTYPE svg PUBLIC "-//W3C//DTD SVG 20010904//EN"
 "http://www.w3.org/TR/2001/REC-SVG-20010904/DTD/svg10.dtd">
<svg version="1.0" xmlns="http://www.w3.org/2000/svg"
 width="1000.000000pt" height="1000.000000pt" viewBox="0 0 1000.000000 1000.000000"
 preserveAspectRatio="xMidYMid meet">
<metadata>
Created by potrace 1.14, written by Peter Selinger 2001-2017
</metadata>
<g transform="translate(0.000000,1000.000000) scale(0.100000,-0.100000)"
fill="#000000" stroke="none">
<path d="M6834 8083 c-48 -49 -105 -111 -128 -139 -23 -28 -97 -118 -166 -199
-187 -221 -259 -318 -412 -555 -104 -160 -252 -449 -323 -630 -61 -157 -63
-160 -110 -160 -22 0 -98 7 -170 15 -168 19 -456 19 -665 0 -251 -23 -593 -72
-734 -106 -102 -24 -123 -24 -131 1 -3 11 -10 20 -15 20 -4 0 -20 33 -35 73
-42 110 -123 292 -173 387 -85 162 -136 255 -174 315 -20 33 -51 85 -69 115
-17 30 -35 57 -39 60 -4 3 -22 30 -39 60 -36 63 -115 176 -152 217 -13 15 -52
62 -87 104 -34 42 -109 119 -165 171 -305 282 -350 308 -452 258 -66 -32 -120
-94 -169 -194 -41 -82 -131 -343 -169 -486 -49 -186 -91 -354 -112 -455 -9
-44 -25 -118 -35 -165 -10 -47 -25 -121 -34 -165 -8 -44 -24 -125 -35 -180
-41 -207 -91 -564 -91 -647 0 -26 -9 -111 -19 -190 -25 -184 -63 -649 -81
-998 -5 -96 -14 -195 -19 -220 -17 -79 -32 -299 -34 -495 -2 -189 3 -244 29
-318 8 -22 14 -56 14 -76 0 -20 4 -41 9 -46 4 -6 23 -46 41 -90 37 -90 44
-101 155 -240 163 -203 303 -333 496 -458 119 -77 121 -79 193 -125 32 -20 74
-47 94 -60 55 -37 260 -141 332 -168 124 -49 191 -77 279 -117 56 -26 212 -81
321 -113 47 -14 114 -34 150 -45 36 -11 103 -27 150 -35 47 -9 117 -24 155
-34 39 -10 131 -24 205 -30 74 -6 178 -15 230 -20 411 -42 589 -41 1060 11
183 19 343 43 555 80 306 54 688 154 850 224 17 7 57 24 90 38 51 22 227 110
330 166 203 110 537 467 672 718 61 115 144 284 157 320 27 77 29 813 2 1006
-9 65 -21 171 -26 235 -6 64 -15 133 -20 152 -5 19 -11 52 -14 73 -3 22 -11
73 -20 115 -8 43 -24 127 -35 187 -12 61 -28 148 -37 195 -9 47 -18 94 -19
105 -8 51 -46 215 -59 253 -8 23 -13 42 -11 42 2 0 -5 25 -16 57 -10 31 -19
69 -19 85 0 17 -9 64 -21 106 -11 43 -27 102 -36 132 -23 86 -93 302 -109 337
-8 17 -14 35 -14 41 0 5 -9 31 -19 58 -11 27 -36 92 -56 144 -20 52 -42 109
-50 125 -7 17 -35 80 -61 140 -49 116 -290 605 -339 690 -55 94 -143 210 -193
255 -148 132 -190 160 -241 160 -24 0 -46 -16 -117 -87z m-562 -2803 c4 -190
12 -403 19 -475 6 -74 13 -419 16 -807 l5 -678 -29 -1 c-15 0 -53 -3 -83 -5
-30 -2 -108 0 -173 4 -74 5 -121 4 -127 -2 -15 -15 -45 22 -60 74 -17 62 -30
577 -36 1467 l-5 731 63 6 c35 3 124 12 198 20 74 8 151 13 170 12 l35 -1 7
-345z m-2256 267 c1 -1 7 -227 13 -502 15 -629 27 -962 41 -1090 15 -132 5
-426 -16 -497 -9 -29 -18 -58 -20 -65 -1 -6 -15 -19 -29 -29 -22 -14 -30 -15
-53 -4 -28 13 -203 40 -236 37 -12 -1 -27 10 -40 33 -18 30 -22 59 -28 215 -4
99 -12 225 -17 280 -6 55 -11 242 -11 415 -1 173 -6 353 -11 400 -5 47 -12
251 -16 454 l-6 369 214 -7 c118 -4 215 -8 215 -9z"/>
</g>
</svg>
